<svg width="600" height="600" viewBox="0 0 600 600" fill="none" xmlns="http://www.w3.org/2000/svg">
<path d="M0 0H600V600H0V0Z" fill="#AAAAAA"/>
<path d="M0 400H200V600H0V400Z" fill="black"/>
<path d="M0 200H200V400H0V200Z" fill="#330000"/>
<path d="M200 400H400V600H200V400Z" fill="#660000"/>
<path d="M-8.58307e-06 0H200V200H-8.58307e-06V0Z" fill="#990000"/>
<path d="M200 200H400V400H200V200Z" fill="#CC0000"/>
<path d="M400 400H600V600H400V400Z" fill="#CC3333"/>
<path d="M200 0H400V200H200V0Z" fill="#CC6666"/>
<path d="M400 200H600V400H400V200Z" fill="#CC9999"/>
<path d="M400 0H600V200H400V0Z" fill="#CCCCCC"/>
</svg>
